<?xml version="1.0" encoding="UTF-8" standalone="no"?>
<!-- Created with Inkscape (http://www.inkscape.org/) -->

<svg
   xmlns:dc="http://purl.org/dc/elements/1.1/"
   xmlns:cc="http://creativecommons.org/ns#"
   xmlns:rdf="http://www.w3.org/1999/02/22-rdf-syntax-ns#"
   xmlns:svg="http://www.w3.org/2000/svg"
   xmlns="http://www.w3.org/2000/svg"
   xmlns:sodipodi="http://sodipodi.sourceforge.net/DTD/sodipodi-0.dtd"
   xmlns:inkscape="http://www.inkscape.org/namespaces/inkscape"
   width="210mm"
   height="297mm"
   id="svg2"
   version="1.1"
   inkscape:version="0.48.4 r9939"
   sodipodi:docname="icon.svg"
   inkscape:export-filename="/home/william/workspace/mykeolis/img/icon.png"
   inkscape:export-xdpi="90"
   inkscape:export-ydpi="90">
  <defs
     id="defs4">
    <linearGradient
       id="linearGradient3879">
      <stop
         style="stop-color:#2b2b2b;stop-opacity:1;"
         offset="0"
         id="stop3881" />
      <stop
         style="stop-color:#ffffff;stop-opacity:1"
         offset="1"
         id="stop3883" />
    </linearGradient>
  </defs>
  <sodipodi:namedview
     id="base"
     pagecolor="#ffffff"
     bordercolor="#666666"
     borderopacity="1.0"
     inkscape:pageopacity="0.0"
     inkscape:pageshadow="2"
     inkscape:zoom="2.56"
     inkscape:cx="45.312164"
     inkscape:cy="109.77882"
     inkscape:document-units="px"
     inkscape:current-layer="layer1"
     showgrid="false"
     showguides="true"
     inkscape:guide-bbox="true"
     inkscape:window-width="1871"
     inkscape:window-height="1056"
     inkscape:window-x="49"
     inkscape:window-y="24"
     inkscape:window-maximized="1">
    <sodipodi:guide
       orientation="1,0"
       position="297.5,851.96429"
       id="guide3820" />
    <sodipodi:guide
       orientation="1,0"
       position="328.39286,835.89286"
       id="guide3822" />
    <sodipodi:guide
       orientation="0,1"
       position="310.58036,805.3125"
       id="guide3824" />
    <sodipodi:guide
       orientation="0,1"
       position="427.85714,865.35714"
       id="guide3849" />
    <sodipodi:guide
       orientation="1,0"
       position="402.58929,879.15179"
       id="guide3851" />
    <sodipodi:guide
       orientation="1,0"
       position="433.4375,872.09822"
       id="guide3853" />
  </sodipodi:namedview>
  <metadata
     id="metadata7">
    <rdf:RDF>
      <cc:Work
         rdf:about="">
        <dc:format>image/svg+xml</dc:format>
        <dc:type
           rdf:resource="http://purl.org/dc/dcmitype/StillImage" />
        <dc:title></dc:title>
      </cc:Work>
    </rdf:RDF>
  </metadata>
  <g
     inkscape:label="Calque 1"
     inkscape:groupmode="layer"
     id="layer1">
    <g
       id="g3950"
       transform="translate(-1.0000024,1.0000009)"
       inkscape:export-filename="/home/william/workspace/mykeolis/res/icon-58.png"
       inkscape:export-xdpi="90"
       inkscape:export-ydpi="90">
      <path
         inkscape:export-ydpi="90"
         inkscape:export-xdpi="90"
         inkscape:export-filename="/home/william/workspace/mykeolis/img/icon.png"
         transform="matrix(1.3762712,0,0,1.3762712,-628.64409,770.39932)"
         d="m 499.64287,183.07646 c 0,11.63743 -9.434,21.07143 -21.07143,21.07143 -11.63743,0 -21.07143,-9.434 -21.07143,-21.07143 0,-11.63743 9.434,-21.07143 21.07143,-21.07143 11.63743,0 21.07143,9.434 21.07143,21.07143 z"
         sodipodi:ry="21.071428"
         sodipodi:rx="21.071428"
         sodipodi:cy="183.07646"
         sodipodi:cx="478.57144"
         id="path3867"
         style="fill:#3ab6ff;fill-opacity:1;fill-rule:nonzero;stroke:none"
         sodipodi:type="arc" />
      <path
         inkscape:export-ydpi="90"
         inkscape:export-xdpi="90"
         inkscape:export-filename="/home/william/workspace/mykeolis/img/icon.png"
         inkscape:connector-curvature="0"
         id="rect2996"
         d="m 27.969869,999.3622 c -21.6303602,0.714 -16.655733,16.5271 -17.957949,34.6208 -0.1675157,2.3277 1.450084,4.2731 3.598192,4.9694 l 0,2.929 c 0,0.7646 0.666388,1.3821 1.485492,1.3821 l 3.003995,0 c 0.819105,0 1.452482,-0.6175 1.452482,-1.3821 l 0,-2.6328 20.730866,0 0,2.7314 c 0,0.7647 0.633377,1.3822 1.452481,1.3822 l 3.003995,0 c 0.819104,0 1.485492,-0.6175 1.485492,-1.3822 l 0,-2.9618 c 0,-0.011 3.07e-4,-0.021 0,-0.033 2.223141,-0.6511 3.93466,-2.6203 3.763247,-5.0023 -2.52849,-19.1113 5.991109,-33.9793 -17.957948,-34.6208 l -4.060345,0 z m -4.489488,7.5693 13.237385,0 c 2.926089,0 7.394449,2.3483 7.394449,5.2654 l 0,5.2656 c 0,2.9171 -2.35566,5.2655 -5.281749,5.2655 l -17.462785,0 c -2.926088,0 -5.281748,-2.3484 -5.281748,-5.2655 l 0,-5.2656 c 0,-2.9171 4.46836,-5.2654 7.394448,-5.2654 z m -8.879941,23.2669 3.301093,0 c 0.444904,0 0.825274,0.7426 0.825274,1.6455 l 0,1.6126 c 0,0.9028 -0.38037,1.6455 -0.825274,1.6455 l -3.301093,0 c -0.444902,0 -0.792262,-0.7427 -0.792262,-1.6455 l 0,-1.6126 c 0,-0.9029 0.34736,-1.6455 0.792262,-1.6455 z m 27.56413,0.033 3.301094,0 c 0.444903,0 0.792263,0.7096 0.792263,1.6126 l 0,1.6454 c 0,0.9029 -0.34736,1.6126 -0.792263,1.6126 l -3.301094,0 c -0.444903,0 -0.792262,-0.7097 -0.792262,-1.6126 l 0,-1.6454 c 0,-0.903 0.347359,-1.6126 0.792262,-1.6126 z"
         style="fill:#3d3d3d;fill-opacity:1;stroke:none" />
      <flowRoot
         inkscape:export-ydpi="90"
         inkscape:export-xdpi="90"
         inkscape:export-filename="/home/william/workspace/mykeolis/img/icon.png"
         transform="translate(-0.42857378,-8.857142)"
         style="font-size:18px;font-style:italic;font-variant:normal;font-weight:normal;font-stretch:normal;text-align:start;line-height:125%;letter-spacing:0px;word-spacing:0px;text-anchor:start;fill:#3d3d3d;fill-opacity:1;stroke:none;font-family:UnPilgi;-inkscape-font-specification:Sans Italic"
         id="flowRoot3900"
         xml:space="preserve"><flowRegion
           id="flowRegion3902"><rect
             style="fill:#3d3d3d;fill-opacity:1"
             y="1011.6479"
             x="19.464285"
             height="35.714348"
             width="54.821426"
             id="rect3904" /></flowRegion><flowPara
           style="font-style:normal;font-variant:normal;font-weight:500;font-stretch:normal;fill:#3d3d3d;fill-opacity:1;font-family:Ubuntu;-inkscape-font-specification:Ubuntu Medium"
           id="flowPara3906"><flowSpan
   id="flowSpan3910"
   style="font-size:12px">m</flowSpan>K</flowPara></flowRoot>    </g>
  </g>
</svg>
